<svg width="130" height="130" viewBox="0 0 130 130" fill="none" xmlns="http://www.w3.org/2000/svg">
<rect width="130" height="130" rx="16.5039" fill="url(#paint0_linear_1_9)"/>
<path d="M14.3076 53.2656V26.2246H23.4863C26.3555 26.2246 28.7422 26.834 30.6465 28.0527C32.5762 29.2461 34.0234 30.8711 34.9883 32.9277C35.9531 34.959 36.4355 37.2187 36.4355 39.707C36.4355 42.4492 35.9023 44.8359 34.8359 46.8672C33.7949 48.8984 32.2969 50.4727 30.3418 51.5898C28.4121 52.707 26.127 53.2656 23.4863 53.2656H14.3076ZM33.7695 39.707C33.7695 37.5488 33.3633 35.6318 32.5508 33.9561C31.7637 32.2803 30.6084 30.9727 29.085 30.0332C27.5615 29.0684 25.6953 28.5859 23.4863 28.5859H16.9736V50.9043H23.4863C25.7207 50.9043 27.5996 50.4092 29.123 49.4189C30.6465 48.4287 31.8018 47.0957 32.5889 45.4199C33.376 43.7187 33.7695 41.8145 33.7695 39.707ZM40.9999 53.2656V33.4229H43.5898V53.2656H40.9999ZM40.9999 29.2715V25.4629H43.5898V29.2715H40.9999ZM55.8067 53.6465C54.1817 53.6465 52.671 53.3799 51.2745 52.8467C49.878 52.3135 48.6719 51.501 47.6563 50.4092L48.7227 48.5811C49.8399 49.6221 50.9571 50.3838 52.0743 50.8662C53.2169 51.3232 54.4229 51.5518 55.6925 51.5518C57.2413 51.5518 58.4981 51.2471 59.463 50.6377C60.4278 50.0029 60.9102 49.1016 60.9102 47.9336C60.9102 47.1465 60.669 46.5498 60.1866 46.1436C59.7296 45.7119 59.0567 45.3691 58.168 45.1152C57.3048 44.8359 56.2637 44.5439 55.045 44.2393C53.6739 43.8584 52.5186 43.4648 51.5792 43.0586C50.6651 42.627 49.9669 42.0937 49.4844 41.459C49.0274 40.7988 48.7989 39.9482 48.7989 38.9072C48.7989 37.6123 49.1163 36.5459 49.751 35.708C50.4112 34.8447 51.2999 34.1973 52.4171 33.7656C53.5596 33.3086 54.8292 33.0801 56.2257 33.0801C57.7491 33.0801 59.0948 33.3213 60.2628 33.8037C61.4307 34.2861 62.3829 34.959 63.1192 35.8223L61.8624 37.5742C61.1514 36.7617 60.3009 36.165 59.3106 35.7842C58.3458 35.3779 57.2667 35.1748 56.0733 35.1748C55.2608 35.1748 54.4864 35.2891 53.7501 35.5176C53.0137 35.7207 52.4044 36.0762 51.9219 36.584C51.4649 37.0664 51.2364 37.7393 51.2364 38.6025C51.2364 39.3135 51.4141 39.8721 51.7696 40.2783C52.1251 40.6592 52.6583 40.9893 53.3692 41.2686C54.0801 41.5225 54.9561 41.8018 55.9971 42.1064C57.4952 42.5127 58.8028 42.9316 59.92 43.3633C61.0372 43.7695 61.9005 44.3027 62.5098 44.9629C63.1192 45.623 63.4239 46.5498 63.4239 47.7432C63.4239 49.5967 62.7257 51.0439 61.3292 52.085C59.9327 53.126 58.0919 53.6465 55.8067 53.6465Z" fill="white"/>
<path d="M69.5276 52.9276C69.4606 52.9527 69.356 52.9987 69.2138 53.0657C69.0715 53.1326 68.9 53.1912 68.6992 53.2414C68.4983 53.2916 68.2808 53.3167 68.0465 53.3167C67.8038 53.3167 67.5737 53.2707 67.3561 53.1786C67.1469 53.0866 66.9796 52.9485 66.8541 52.7644C66.7285 52.572 66.6658 52.3377 66.6658 52.0615V47.3797H65.7621V46.7019H66.6658V44.4928H67.5193V46.7019H69.0255V47.3797H67.5193V51.823C67.536 52.0573 67.6197 52.2331 67.7703 52.3502C67.9293 52.4674 68.1092 52.5259 68.3101 52.5259C68.5444 52.5259 68.7577 52.4883 68.9502 52.413C69.1427 52.3293 69.2598 52.2707 69.3017 52.2372L69.5276 52.9276ZM73.8574 47.455C73.2884 47.4718 72.7864 47.6308 72.3512 47.932C71.9245 48.2332 71.6232 48.6474 71.4475 49.1746V53.2414H70.594V46.7019H71.3973V48.2709C71.6232 47.8107 71.9203 47.4383 72.2885 47.1538C72.665 46.8693 73.0625 46.7103 73.4809 46.6768C73.5646 46.6685 73.6357 46.6643 73.6943 46.6643C73.7612 46.6643 73.8156 46.6685 73.8574 46.6768V47.455ZM74.9944 53.2414V46.7019H75.848V53.2414H74.9944ZM74.9944 45.3338V44.0786H75.848V45.3338H74.9944ZM80.9286 53.3669C80.4181 53.3669 79.9454 53.2372 79.5102 52.9778C79.0751 52.71 78.7362 52.3753 78.4935 51.9737V53.2414H77.7279V44.0786H78.5814V48.0701C78.8743 47.6266 79.2257 47.2709 79.6357 47.0032C80.0458 46.727 80.5227 46.589 81.0666 46.589C81.5269 46.589 81.9369 46.6852 82.2967 46.8777C82.6649 47.0701 82.9787 47.3295 83.2381 47.6559C83.4975 47.9738 83.6941 48.3378 83.828 48.7479C83.9619 49.1495 84.0288 49.5637 84.0288 49.9905C84.0288 50.4507 83.9494 50.8817 83.7904 51.2833C83.6397 51.685 83.4222 52.0448 83.1377 52.3628C82.8532 52.6724 82.5226 52.9192 82.1461 53.1033C81.7779 53.279 81.3721 53.3669 80.9286 53.3669ZM80.7277 52.6138C81.0792 52.6138 81.4055 52.5427 81.7068 52.4004C82.008 52.2582 82.2674 52.0615 82.485 51.8105C82.7025 51.5594 82.8699 51.2791 82.9871 50.9695C83.1042 50.6515 83.1628 50.3252 83.1628 49.9905C83.1628 49.5303 83.0624 49.0993 82.8615 48.6977C82.6691 48.2876 82.3971 47.9613 82.0457 47.7186C81.7026 47.4676 81.2968 47.3421 80.8282 47.3421C80.4934 47.3421 80.1797 47.4174 79.8868 47.568C79.6023 47.7186 79.3471 47.9194 79.1211 48.1705C78.9036 48.4131 78.7237 48.6809 78.5814 48.9738V51.0072C78.6149 51.2331 78.7027 51.4465 78.845 51.6473C78.9872 51.8398 79.163 52.0071 79.3722 52.1494C79.5897 52.2916 79.8157 52.4046 80.0499 52.4883C80.2842 52.572 80.5102 52.6138 80.7277 52.6138ZM85.4119 50.5428V46.7019H86.2654V50.3921C86.2654 51.1369 86.3909 51.6933 86.642 52.0615C86.9014 52.4297 87.2821 52.6138 87.7842 52.6138C88.1189 52.6138 88.441 52.5427 88.7506 52.4004C89.0686 52.2498 89.3489 52.0406 89.5916 51.7728C89.8343 51.4967 90.0184 51.1787 90.1439 50.8189V46.7019H90.9974V52.2121C90.9974 52.3293 91.0225 52.4171 91.0727 52.4757C91.1229 52.5259 91.1982 52.5552 91.2986 52.5636V53.2414C91.1982 53.2497 91.1187 53.2539 91.0602 53.2539C91.0016 53.2623 90.9472 53.2665 90.897 53.2665C90.7296 53.2497 90.5832 53.1828 90.4577 53.0657C90.3405 52.9485 90.2778 52.8063 90.2694 52.6389L90.2443 51.7603C89.9598 52.2623 89.5707 52.6556 89.077 52.9401C88.5917 53.2246 88.0645 53.3669 87.4955 53.3669C86.8093 53.3669 86.2905 53.1284 85.9391 52.6514C85.5876 52.1745 85.4119 51.4716 85.4119 50.5428ZM96.0652 52.9276C95.9982 52.9527 95.8936 52.9987 95.7514 53.0657C95.6091 53.1326 95.4376 53.1912 95.2368 53.2414C95.0359 53.2916 94.8184 53.3167 94.5841 53.3167C94.3414 53.3167 94.1113 53.2707 93.8937 53.1786C93.6845 53.0866 93.5172 52.9485 93.3916 52.7644C93.2661 52.572 93.2034 52.3377 93.2034 52.0615V47.3797H92.2996V46.7019H93.2034V44.4928H94.0569V46.7019H95.5631V47.3797H94.0569V51.823C94.0736 52.0573 94.1573 52.2331 94.3079 52.3502C94.4669 52.4674 94.6468 52.5259 94.8476 52.5259C95.0819 52.5259 95.2953 52.4883 95.4878 52.413C95.6802 52.3293 95.7974 52.2707 95.8392 52.2372L96.0652 52.9276ZM97.1316 53.2414V46.7019H97.9851V53.2414H97.1316ZM97.1316 45.3338V44.0786H97.9851V45.3338H97.1316ZM102.651 53.3669C102.183 53.3669 101.748 53.279 101.346 53.1033C100.953 52.9192 100.61 52.6724 100.317 52.3628C100.032 52.0448 99.8106 51.685 99.6516 51.2833C99.4926 50.8733 99.4131 50.4423 99.4131 49.9905C99.4131 49.5219 99.4926 49.0868 99.6516 48.6851C99.8106 48.2751 100.037 47.9153 100.329 47.6057C100.622 47.2877 100.965 47.0408 101.359 46.8651C101.76 46.681 102.195 46.589 102.664 46.589C103.133 46.589 103.564 46.681 103.957 46.8651C104.35 47.0408 104.693 47.2877 104.986 47.6057C105.279 47.9153 105.505 48.2751 105.664 48.6851C105.823 49.0868 105.902 49.5219 105.902 49.9905C105.902 50.4423 105.823 50.8733 105.664 51.2833C105.505 51.685 105.279 52.0448 104.986 52.3628C104.702 52.6724 104.359 52.9192 103.957 53.1033C103.564 53.279 103.128 53.3669 102.651 53.3669ZM100.279 50.003C100.279 50.4884 100.384 50.9319 100.593 51.3335C100.811 51.7268 101.099 52.0406 101.459 52.2749C101.819 52.5008 102.216 52.6138 102.651 52.6138C103.087 52.6138 103.484 52.4966 103.844 52.2623C104.204 52.028 104.492 51.7101 104.71 51.3084C104.928 50.8984 105.036 50.4549 105.036 49.9779C105.036 49.4926 104.928 49.0491 104.71 48.6474C104.492 48.2458 104.204 47.9278 103.844 47.6935C103.484 47.4592 103.087 47.3421 102.651 47.3421C102.216 47.3421 101.819 47.4634 101.459 47.7061C101.108 47.9487 100.823 48.2709 100.606 48.6726C100.388 49.0658 100.279 49.5093 100.279 50.003ZM112.828 53.2414H111.974V49.5888C111.974 48.819 111.861 48.2583 111.635 47.9069C111.409 47.5471 111.054 47.3672 110.568 47.3672C110.233 47.3672 109.903 47.4508 109.577 47.6182C109.25 47.7772 108.962 47.9989 108.711 48.2834C108.468 48.5596 108.292 48.8776 108.183 49.2374V53.2414H107.33V46.7019H108.108V48.183C108.284 47.8651 108.514 47.5889 108.798 47.3546C109.083 47.112 109.405 46.9237 109.765 46.7898C110.125 46.6559 110.497 46.589 110.882 46.589C111.242 46.589 111.547 46.6559 111.798 46.7898C112.049 46.9237 112.25 47.1161 112.401 47.3672C112.551 47.6098 112.66 47.9069 112.727 48.2583C112.794 48.6014 112.828 48.9863 112.828 49.4131V53.2414Z" fill="white"/>
<path d="M65.8625 77.3586C65.8625 76.9486 65.9796 76.5971 66.2139 76.3043C66.4482 76.003 66.7704 75.7729 67.1804 75.6139C67.5988 75.4466 68.08 75.3629 68.6239 75.3629C68.9418 75.3629 69.2724 75.388 69.6154 75.4382C69.9585 75.4884 70.264 75.5637 70.5317 75.6641V75.1119C70.5317 74.5596 70.3685 74.1203 70.0422 73.7939C69.7159 73.4676 69.264 73.3044 68.6866 73.3044C68.3352 73.3044 67.9879 73.3714 67.6448 73.5052C67.3101 73.6308 66.9587 73.819 66.5905 74.0701L66.2641 73.4676C66.6909 73.1747 67.1093 72.9571 67.5193 72.8149C67.9293 72.6643 68.3477 72.589 68.7745 72.589C69.5778 72.589 70.2137 72.8191 70.6823 73.2793C71.1509 73.7395 71.3852 74.3755 71.3852 75.1872V78.2121C71.3852 78.3293 71.4103 78.4171 71.4605 78.4757C71.5108 78.5259 71.5903 78.5552 71.699 78.5636V79.2414C71.607 79.2497 71.5275 79.2581 71.4605 79.2665C71.3936 79.2749 71.3434 79.2749 71.3099 79.2665C71.1007 79.2581 70.9417 79.1912 70.833 79.0657C70.7242 78.9401 70.6656 78.8063 70.6572 78.664L70.6447 78.187C70.3518 78.5636 69.9711 78.8565 69.5025 79.0657C69.0339 79.2665 68.5569 79.3669 68.0716 79.3669C67.6532 79.3669 67.2725 79.279 66.9294 79.1033C66.5947 78.9192 66.3311 78.6766 66.1386 78.3753C65.9545 78.0657 65.8625 77.7268 65.8625 77.3586ZM70.243 77.8607C70.3351 77.7435 70.4062 77.6306 70.4564 77.5218C70.5066 77.413 70.5317 77.3168 70.5317 77.2331V76.2792C70.2472 76.1704 69.9502 76.0867 69.6405 76.0281C69.3393 75.9696 69.0339 75.9403 68.7243 75.9403C68.1134 75.9403 67.6197 76.0616 67.2432 76.3043C66.8666 76.5469 66.6783 76.8775 66.6783 77.2959C66.6783 77.5385 66.7411 77.7686 66.8666 77.9862C66.9921 78.1954 67.1762 78.3711 67.4189 78.5134C67.6616 78.6473 67.9461 78.7142 68.2724 78.7142C68.6824 78.7142 69.0632 78.6347 69.4146 78.4757C69.7744 78.3167 70.0506 78.1117 70.243 77.8607ZM75.8527 79.3292C75.4092 79.3292 74.9992 79.2372 74.6226 79.0531C74.2461 78.869 73.9197 78.6222 73.6436 78.3126C73.3758 77.9946 73.1666 77.6348 73.016 77.2331C72.8654 76.8314 72.7901 76.4172 72.7901 75.9905C72.7901 75.5303 72.8612 75.0993 73.0034 74.6977C73.1541 74.2876 73.3632 73.9236 73.631 73.6057C73.9072 73.2877 74.2293 73.0408 74.5975 72.8651C74.9657 72.681 75.3757 72.589 75.8276 72.589C76.3882 72.589 76.8735 72.7312 77.2836 73.0157C77.702 73.3002 78.0534 73.6517 78.3379 74.0701V72.7019H79.1036V79.2665C79.1036 79.869 78.9571 80.3752 78.6643 80.7852C78.3798 81.2036 77.9906 81.5174 77.4969 81.7266C77.0116 81.9358 76.4803 82.0404 75.9029 82.0404C75.1581 82.0404 74.5557 81.9065 74.0954 81.6388C73.6352 81.371 73.2586 81.0112 72.9658 80.5593L73.4929 80.1451C73.7523 80.5551 74.0954 80.8606 74.5222 81.0614C74.9573 81.2622 75.4175 81.3626 75.9029 81.3626C76.3296 81.3626 76.7187 81.2831 77.0702 81.1241C77.43 80.9735 77.7145 80.7434 77.9237 80.4338C78.1413 80.1242 78.2501 79.7351 78.2501 79.2665V77.9737C77.999 78.3837 77.6559 78.7142 77.2208 78.9652C76.7857 79.2079 76.3296 79.3292 75.8527 79.3292ZM76.0912 78.6138C76.3506 78.6138 76.5974 78.5678 76.8317 78.4757C77.0744 78.3837 77.2961 78.2623 77.4969 78.1117C77.6978 77.9527 77.8651 77.777 77.999 77.5846C78.1329 77.3921 78.2166 77.1954 78.2501 76.9946V74.9738C78.1245 74.6558 77.9446 74.3755 77.7103 74.1328C77.476 73.8818 77.2083 73.6893 76.907 73.5554C76.6141 73.4132 76.3087 73.3421 75.9907 73.3421C75.6226 73.3421 75.292 73.4216 74.9992 73.5806C74.7146 73.7312 74.472 73.9362 74.2712 74.1956C74.0787 74.4466 73.9281 74.7311 73.8193 75.0491C73.7105 75.3671 73.6561 75.6851 73.6561 76.003C73.6561 76.3545 73.7189 76.6892 73.8444 77.0072C73.9699 77.3168 74.1415 77.5971 74.359 77.8481C74.5849 78.0908 74.8443 78.2791 75.1372 78.413C75.4385 78.5469 75.7564 78.6138 76.0912 78.6138ZM83.8125 79.3669C83.3439 79.3669 82.9088 79.279 82.5071 79.1033C82.1055 78.9192 81.7582 78.6724 81.4654 78.3628C81.1725 78.0448 80.9424 77.6808 80.775 77.2708C80.616 76.8607 80.5365 76.4214 80.5365 75.9528C80.5365 75.342 80.6746 74.7813 80.9507 74.2709C81.2352 73.7605 81.6243 73.3546 82.118 73.0534C82.6117 72.7438 83.1724 72.589 83.8 72.589C84.4443 72.589 85.0049 72.7438 85.4819 73.0534C85.9672 73.363 86.348 73.773 86.6241 74.2834C86.9002 74.7855 87.0383 75.3378 87.0383 75.9403C87.0383 76.0072 87.0383 76.0742 87.0383 76.1411C87.0383 76.1997 87.0341 76.2457 87.0258 76.2792H81.4277C81.4695 76.7478 81.5992 77.1662 81.8168 77.5343C82.0427 77.8942 82.3314 78.1828 82.6829 78.4004C83.0427 78.6096 83.4318 78.7142 83.8502 78.7142C84.2769 78.7142 84.6786 78.6054 85.0551 78.3879C85.4401 78.1703 85.7078 77.8858 85.8585 77.5343L86.599 77.7352C86.4651 78.0448 86.2601 78.3251 85.984 78.5761C85.7078 78.8272 85.3815 79.0238 85.0049 79.1661C84.6368 79.3 84.2393 79.3669 83.8125 79.3669ZM81.4026 75.6641H86.235C86.2015 75.1872 86.0718 74.7688 85.8459 74.409C85.6283 74.0491 85.3397 73.7688 84.9798 73.568C84.6284 73.3588 84.2393 73.2542 83.8125 73.2542C83.3858 73.2542 82.9967 73.3588 82.6452 73.568C82.2938 73.7688 82.0051 74.0533 81.7791 74.4215C81.5616 74.7813 81.4361 75.1955 81.4026 75.6641ZM98.0828 79.2414H97.2292V75.5888C97.2292 74.8274 97.1079 74.2667 96.8652 73.9069C96.6226 73.5471 96.2628 73.3672 95.7858 73.3672C95.2921 73.3672 94.8486 73.5429 94.4553 73.8943C94.0704 74.2458 93.7984 74.6977 93.6394 75.2499V79.2414H92.7859V75.5888C92.7859 74.819 92.6688 74.2583 92.4345 73.9069C92.2002 73.5471 91.8404 73.3672 91.355 73.3672C90.8697 73.3672 90.4304 73.5387 90.0371 73.8818C89.6438 74.2249 89.3677 74.6767 89.2087 75.2374V79.2414H88.3552V72.7019H89.1334V74.183C89.4095 73.6726 89.761 73.2793 90.1877 73.0032C90.6228 72.727 91.104 72.589 91.6312 72.589C92.1751 72.589 92.6144 72.7438 92.9491 73.0534C93.2838 73.363 93.4888 73.7688 93.5641 74.2709C93.8654 73.7186 94.2252 73.3002 94.6436 73.0157C95.0703 72.7312 95.5515 72.589 96.087 72.589C96.4552 72.589 96.7648 72.6559 97.0159 72.7898C97.2753 72.9237 97.4803 73.1161 97.6309 73.3672C97.7899 73.6098 97.9028 73.9069 97.9698 74.2583C98.0451 74.6014 98.0828 74.9863 98.0828 75.4131V79.2414ZM102.714 79.3669C102.245 79.3669 101.81 79.279 101.408 79.1033C101.007 78.9192 100.659 78.6724 100.366 78.3628C100.074 78.0448 99.8435 77.6808 99.6761 77.2708C99.5172 76.8607 99.4377 76.4214 99.4377 75.9528C99.4377 75.342 99.5757 74.7813 99.8519 74.2709C100.136 73.7605 100.525 73.3546 101.019 73.0534C101.513 72.7438 102.074 72.589 102.701 72.589C103.345 72.589 103.906 72.7438 104.383 73.0534C104.868 73.363 105.249 73.773 105.525 74.2834C105.801 74.7855 105.939 75.3378 105.939 75.9403C105.939 76.0072 105.939 76.0742 105.939 76.1411C105.939 76.1997 105.935 76.2457 105.927 76.2792H100.329C100.371 76.7478 100.5 77.1662 100.718 77.5343C100.944 77.8942 101.233 78.1828 101.584 78.4004C101.944 78.6096 102.333 78.7142 102.751 78.7142C103.178 78.7142 103.58 78.6054 103.956 78.3879C104.341 78.1703 104.609 77.8858 104.76 77.5343L105.5 77.7352C105.366 78.0448 105.161 78.3251 104.885 78.5761C104.609 78.8272 104.283 79.0238 103.906 79.1661C103.538 79.3 103.14 79.3669 102.714 79.3669ZM100.304 75.6641H105.136C105.103 75.1872 104.973 74.7688 104.747 74.409C104.529 74.0491 104.241 73.7688 103.881 73.568C103.53 73.3588 103.14 73.2542 102.714 73.2542C102.287 73.2542 101.898 73.3588 101.546 73.568C101.195 73.7688 100.906 74.0533 100.68 74.4215C100.463 74.7813 100.337 75.1955 100.304 75.6641ZM112.754 79.2414H111.9V75.5888C111.9 74.819 111.787 74.2583 111.562 73.9069C111.336 73.5471 110.98 73.3672 110.495 73.3672C110.16 73.3672 109.829 73.4508 109.503 73.6182C109.177 73.7772 108.888 73.9989 108.637 74.2834C108.394 74.5596 108.219 74.8776 108.11 75.2374V79.2414H107.256V72.7019H108.035V74.183C108.21 73.8651 108.44 73.5889 108.725 73.3546C109.009 73.112 109.332 72.9237 109.691 72.7898C110.051 72.6559 110.424 72.589 110.808 72.589C111.168 72.589 111.474 72.6559 111.725 72.7898C111.976 72.9237 112.177 73.1161 112.327 73.3672C112.478 73.6098 112.587 73.9069 112.654 74.2583C112.72 74.6014 112.754 74.9863 112.754 75.4131V79.2414ZM117.651 78.9276C117.584 78.9527 117.479 78.9987 117.337 79.0657C117.195 79.1326 117.023 79.1912 116.822 79.2414C116.621 79.2916 116.404 79.3167 116.17 79.3167C115.927 79.3167 115.697 79.2707 115.479 79.1786C115.27 79.0866 115.103 78.9485 114.977 78.7644C114.852 78.572 114.789 78.3377 114.789 78.0615V73.3797H113.885V72.7019H114.789V70.4928H115.642V72.7019H117.149V73.3797H115.642V77.823C115.659 78.0573 115.743 78.2331 115.893 78.3502C116.052 78.4674 116.232 78.5259 116.433 78.5259C116.667 78.5259 116.881 78.4883 117.073 78.413C117.266 78.3293 117.383 78.2707 117.425 78.2372L117.651 78.9276Z" fill="white"/>
<path d="M34.5313 79.3516H32.8047V71.9629C32.8047 70.4225 32.5592 69.2884 32.0684 68.5605C31.5775 67.8327 30.8496 67.4687 29.8848 67.4687C28.8861 67.4687 27.9889 67.8242 27.1934 68.5352C26.4147 69.2461 25.8646 70.1602 25.543 71.2773V79.3516H23.8164V71.9629C23.8164 70.4056 23.5794 69.2715 23.1055 68.5605C22.6315 67.8327 21.9036 67.4687 20.9219 67.4687C19.9401 67.4687 19.0514 67.8158 18.2559 68.5098C17.4603 69.2038 16.9017 70.1178 16.5801 71.252V79.3516H14.8535V66.123H16.4277V69.1191C16.9863 68.0866 17.6973 67.291 18.5605 66.7324C19.4408 66.1738 20.4141 65.8945 21.4805 65.8945C22.5807 65.8945 23.4694 66.2077 24.1465 66.834C24.8236 67.4603 25.2383 68.2812 25.3906 69.2969C26 68.1797 26.7279 67.3333 27.5742 66.7578C28.4375 66.1823 29.4108 65.8945 30.4941 65.8945C31.2389 65.8945 31.8652 66.0299 32.373 66.3008C32.8978 66.5716 33.3125 66.9609 33.6172 67.4687C33.9388 67.9596 34.1673 68.5605 34.3027 69.2715C34.4551 69.9655 34.5313 70.7441 34.5313 71.6074V79.3516ZM37.1197 75.543C37.1197 74.7135 37.3567 74.0026 37.8306 73.4102C38.3046 72.8008 38.9563 72.3353 39.7857 72.0137C40.6321 71.6751 41.6054 71.5059 42.7056 71.5059C43.3489 71.5059 44.0175 71.5566 44.7115 71.6582C45.4055 71.7598 46.0234 71.9121 46.565 72.1152V70.998C46.565 69.8809 46.2349 68.9922 45.5748 68.332C44.9146 67.6719 44.0006 67.3418 42.8326 67.3418C42.1217 67.3418 41.4192 67.4772 40.7252 67.748C40.0481 68.002 39.3372 68.3828 38.5924 68.8906L37.9322 67.6719C38.7955 67.0794 39.6418 66.6393 40.4713 66.3516C41.3007 66.0469 42.147 65.8945 43.0103 65.8945C44.6353 65.8945 45.9218 66.36 46.8697 67.291C47.8176 68.222 48.2916 69.5085 48.2916 71.1504V77.2695C48.2916 77.5065 48.3424 77.6842 48.4439 77.8027C48.5455 77.9043 48.7063 77.9635 48.9263 77.9805V79.3516C48.7401 79.3685 48.5793 79.3854 48.4439 79.4023C48.3085 79.4193 48.2069 79.4193 48.1392 79.4023C47.7161 79.3854 47.3944 79.25 47.1744 78.9961C46.9543 78.7422 46.8359 78.4714 46.8189 78.1836L46.7935 77.2187C46.2011 77.9805 45.4309 78.5729 44.483 78.9961C43.5351 79.4023 42.5702 79.6055 41.5885 79.6055C40.7421 79.6055 39.9719 79.4277 39.2779 79.0723C38.6008 78.6999 38.0676 78.209 37.6783 77.5996C37.3059 76.9733 37.1197 76.2878 37.1197 75.543ZM45.981 76.5586C46.1672 76.3216 46.3111 76.0931 46.4127 75.873C46.5142 75.653 46.565 75.4583 46.565 75.2891V73.3594C45.9895 73.1393 45.3886 72.9701 44.7623 72.8516C44.1529 72.7331 43.5351 72.6738 42.9088 72.6738C41.6731 72.6738 40.6744 72.9193 39.9127 73.4102C39.151 73.901 38.7701 74.5697 38.7701 75.416C38.7701 75.9069 38.897 76.3724 39.151 76.8125C39.4049 77.2357 39.7773 77.5911 40.2681 77.8789C40.759 78.1497 41.3345 78.2852 41.9947 78.2852C42.8241 78.2852 43.5943 78.1243 44.3053 77.8027C45.0331 77.4811 45.5917 77.0664 45.981 76.5586ZM63.1431 79.3516H61.4166V71.9629C61.4166 70.4056 61.188 69.2715 60.731 68.5605C60.274 67.8327 59.5546 67.4687 58.5728 67.4687C57.8957 67.4687 57.2271 67.638 56.5669 67.9766C55.9068 68.2982 55.3228 68.7467 54.815 69.3223C54.3241 69.8809 53.9686 70.5241 53.7486 71.252V79.3516H52.022V66.123H53.5962V69.1191C53.9517 68.4759 54.4172 67.9173 54.9927 67.4434C55.5682 66.9525 56.2199 66.5716 56.9478 66.3008C57.6757 66.0299 58.4289 65.8945 59.2076 65.8945C59.9354 65.8945 60.5533 66.0299 61.0611 66.3008C61.5689 66.5716 61.9751 66.9609 62.2798 67.4687C62.5845 67.9596 62.8046 68.5605 62.94 69.2715C63.0754 69.9655 63.1431 70.7441 63.1431 71.6074V79.3516Z" fill="white"/>
<path d="M58.8047 101.188C57.7214 101.188 56.7142 101.01 55.7832 100.654C54.8522 100.299 54.0482 99.7572 53.3711 99.0293L54.082 97.8105C54.8268 98.5046 55.5716 99.0124 56.3164 99.334C57.0781 99.6387 57.8822 99.791 58.7285 99.791C59.7611 99.791 60.599 99.5879 61.2422 99.1816C61.8854 98.7585 62.207 98.1576 62.207 97.3789C62.207 96.8542 62.0462 96.4564 61.7246 96.1855C61.4199 95.8978 60.9714 95.6693 60.3789 95.5C59.8034 95.3138 59.1094 95.1191 58.2969 94.916C57.3828 94.6621 56.6126 94.3997 55.9863 94.1289C55.377 93.8411 54.9115 93.4857 54.5898 93.0625C54.2852 92.6224 54.1328 92.0553 54.1328 91.3613C54.1328 90.498 54.3444 89.7871 54.7676 89.2285C55.2077 88.653 55.8001 88.2214 56.5449 87.9336C57.3066 87.6289 58.153 87.4766 59.084 87.4766C60.0996 87.4766 60.9967 87.6374 61.7754 87.959C62.554 88.2806 63.1888 88.7292 63.6797 89.3047L62.8418 90.4727C62.3678 89.931 61.8008 89.5332 61.1406 89.2793C60.4974 89.0085 59.778 88.873 58.9824 88.873C58.4408 88.873 57.9245 88.9492 57.4336 89.1016C56.9427 89.237 56.5365 89.474 56.2148 89.8125C55.9102 90.1341 55.7578 90.5827 55.7578 91.1582C55.7578 91.6322 55.8763 92.0046 56.1133 92.2754C56.3503 92.5293 56.7057 92.7493 57.1797 92.9355C57.6536 93.1048 58.2376 93.291 58.9316 93.4941C59.9303 93.765 60.8021 94.0443 61.5469 94.332C62.2917 94.6029 62.8672 94.9583 63.2734 95.3984C63.6797 95.8385 63.8828 96.4564 63.8828 97.252C63.8828 98.4876 63.4173 99.4525 62.4863 100.146C61.5553 100.84 60.3281 101.188 58.8047 101.188Z" fill="white"/>
<path d="M66.7662 102.767C66.8834 102.775 66.9963 102.779 67.1051 102.779C67.2139 102.788 67.2934 102.784 67.3436 102.767C67.444 102.75 67.5402 102.692 67.6323 102.591C67.7243 102.491 67.8331 102.298 67.9586 102.014C68.0841 101.729 68.2599 101.311 68.4858 100.759L65.6365 94.2192H66.5403L68.9377 99.88L71.1468 94.2192H72.0003L68.6113 102.654C68.5527 102.813 68.4649 102.959 68.3477 103.093C68.2306 103.235 68.0841 103.344 67.9084 103.42C67.7411 103.503 67.5319 103.549 67.2808 103.558C67.2055 103.566 67.126 103.566 67.0423 103.558C66.967 103.558 66.875 103.549 66.7662 103.533V102.767ZM75.1796 100.884C74.644 100.884 74.1462 100.796 73.6859 100.621C73.2257 100.445 72.8282 100.177 72.4935 99.8172L72.845 99.2148C73.2131 99.5578 73.5813 99.8089 73.9495 99.9679C74.3261 100.118 74.7235 100.194 75.1419 100.194C75.6524 100.194 76.0666 100.093 76.3846 99.8926C76.7025 99.6834 76.8615 99.3863 76.8615 99.0014C76.8615 98.742 76.782 98.5453 76.623 98.4114C76.4724 98.2692 76.2507 98.1562 75.9578 98.0726C75.6733 97.9805 75.3302 97.8843 74.9286 97.7839C74.4767 97.6583 74.096 97.5286 73.7863 97.3948C73.4851 97.2525 73.255 97.0768 73.096 96.8676C72.9454 96.65 72.8701 96.3697 72.8701 96.0266C72.8701 95.5999 72.9747 95.2484 73.1839 94.9723C73.4014 94.6878 73.6943 94.4744 74.0625 94.3321C74.439 94.1815 74.8574 94.1062 75.3177 94.1062C75.8197 94.1062 76.2632 94.1857 76.6481 94.3447C77.0331 94.5037 77.3469 94.7254 77.5895 95.0099L77.1753 95.5873C76.941 95.3195 76.6607 95.1229 76.3343 94.9974C76.0164 94.8635 75.6607 94.7966 75.2674 94.7966C74.9997 94.7966 74.7445 94.8342 74.5018 94.9095C74.2591 94.9765 74.0583 95.0936 73.8993 95.261C73.7487 95.42 73.6734 95.6417 73.6734 95.9262C73.6734 96.1605 73.732 96.3446 73.8491 96.4785C73.9663 96.604 74.142 96.7128 74.3763 96.8048C74.6106 96.8885 74.8993 96.9806 75.2423 97.081C75.736 97.2149 76.167 97.3529 76.5352 97.4952C76.9034 97.6291 77.1879 97.8048 77.3887 98.0223C77.5895 98.2399 77.6899 98.5453 77.6899 98.9386C77.6899 99.5495 77.4598 100.026 76.9996 100.37C76.5394 100.713 75.9327 100.884 75.1796 100.884ZM82.2387 100.445C82.1717 100.47 82.0671 100.516 81.9249 100.583C81.7826 100.65 81.6111 100.708 81.4102 100.759C81.2094 100.809 80.9919 100.834 80.7576 100.834C80.5149 100.834 80.2848 100.788 80.0672 100.696C79.858 100.604 79.6907 100.466 79.5651 100.282C79.4396 100.089 79.3769 99.8549 79.3769 99.5788V94.897H78.4731V94.2192H79.3769V92.0101H80.2304V94.2192H81.7366V94.897H80.2304V99.3403C80.2471 99.5746 80.3308 99.7503 80.4814 99.8674C80.6404 99.9846 80.8203 100.043 81.0211 100.043C81.2554 100.043 81.4688 100.006 81.6613 99.9302C81.8537 99.8465 81.9709 99.788 82.0127 99.7545L82.2387 100.445ZM86.0189 100.884C85.5503 100.884 85.1152 100.796 84.7135 100.621C84.3118 100.436 83.9646 100.19 83.6717 99.88C83.3788 99.562 83.1487 99.198 82.9814 98.788C82.8224 98.378 82.7429 97.9387 82.7429 97.4701C82.7429 96.8592 82.881 96.2986 83.1571 95.7881C83.4416 95.2777 83.8307 94.8719 84.3244 94.5706C84.8181 94.261 85.3787 94.1062 86.0063 94.1062C86.6507 94.1062 87.2113 94.261 87.6883 94.5706C88.1736 94.8802 88.5543 95.2903 88.8305 95.8007C89.1066 96.3028 89.2447 96.855 89.2447 97.4575C89.2447 97.5245 89.2447 97.5914 89.2447 97.6583C89.2447 97.7169 89.2405 97.7629 89.2321 97.7964H83.6341C83.6759 98.265 83.8056 98.6834 84.0232 99.0516C84.2491 99.4114 84.5378 99.7001 84.8892 99.9177C85.249 100.127 85.6381 100.231 86.0565 100.231C86.4833 100.231 86.885 100.123 87.2615 99.9051C87.6464 99.6875 87.9142 99.403 88.0648 99.0516L88.8054 99.2524C88.6715 99.562 88.4665 99.8423 88.1903 100.093C87.9142 100.344 87.5878 100.541 87.2113 100.683C86.8431 100.817 86.4456 100.884 86.0189 100.884ZM83.609 97.1814H88.4414C88.4079 96.7044 88.2782 96.286 88.0523 95.9262C87.8347 95.5664 87.546 95.2861 87.1862 95.0852C86.8347 94.876 86.4456 94.7714 86.0189 94.7714C85.5921 94.7714 85.203 94.876 84.8516 95.0852C84.5001 95.2861 84.2114 95.5706 83.9855 95.9388C83.7679 96.2986 83.6424 96.7128 83.609 97.1814ZM100.289 100.759H99.4356V97.1061C99.4356 96.3446 99.3143 95.784 99.0716 95.4241C98.8289 95.0643 98.4691 94.8844 97.9921 94.8844C97.4984 94.8844 97.055 95.0601 96.6617 95.4116C96.2767 95.763 96.0048 96.2149 95.8458 96.7672V100.759H94.9923V97.1061C94.9923 96.3362 94.8751 95.7756 94.6408 95.4241C94.4065 95.0643 94.0467 94.8844 93.5614 94.8844C93.0761 94.8844 92.6367 95.056 92.2435 95.399C91.8502 95.7421 91.574 96.194 91.415 96.7546V100.759H90.5615V94.2192H91.3397V95.7003C91.6159 95.1898 91.9673 94.7966 92.3941 94.5204C92.8292 94.2443 93.3104 94.1062 93.8375 94.1062C94.3814 94.1062 94.8207 94.261 95.1555 94.5706C95.4902 94.8802 95.6952 95.2861 95.7705 95.7881C96.0717 95.2359 96.4316 94.8175 96.8499 94.533C97.2767 94.2485 97.7578 94.1062 98.2934 94.1062C98.6616 94.1062 98.9712 94.1731 99.2222 94.307C99.4816 94.4409 99.6866 94.6334 99.8373 94.8844C99.9962 95.1271 100.109 95.4241 100.176 95.7756C100.251 96.1187 100.289 96.5036 100.289 96.9303V100.759Z" fill="white"/>
<defs>
<linearGradient id="paint0_linear_1_9" x1="65" y1="0" x2="65" y2="130" gradientUnits="userSpaceOnUse">
<stop stop-color="#5D43F8"/>
<stop offset="0.556554" stop-color="#1FBDD8" stop-opacity="0.81325"/>
<stop offset="0.839323" stop-color="#7B8600" stop-opacity="0.64"/>
</linearGradient>
</defs>
</svg>
